<mxfile host="app.diagrams.net" modified="2021-11-08T20:11:00.116Z" agent="5.0 (Windows NT 10.0; Win64; x64) AppleWebKit/537.36 (KHTML, like Gecko) Chrome/94.0.4606.81 Safari/537.36 OPR/80.0.4170.91" etag="2bIRaoLPKOsBSTUIJHVs" version="15.7.0" type="github">
  <diagram id="7Db7QByXY7l63GUWesCJ" name="Page-1">
    <mxGraphModel dx="1151" dy="1814" grid="1" gridSize="10" guides="1" tooltips="1" connect="1" arrows="1" fold="1" page="1" pageScale="1" pageWidth="827" pageHeight="1169" math="0" shadow="0">
      <root>
        <mxCell id="0" />
        <mxCell id="1" parent="0" />
        <mxCell id="WtGSnrzcYiVvbgUlNlTl-1" value="&lt;font style=&quot;font-size: 25px&quot;&gt;index&lt;/font&gt;" style="rounded=0;whiteSpace=wrap;html=1;" vertex="1" parent="1">
          <mxGeometry x="360" y="230" width="120" height="60" as="geometry" />
        </mxCell>
        <mxCell id="WtGSnrzcYiVvbgUlNlTl-5" value="" style="shape=folder;fontStyle=1;spacingTop=10;tabWidth=50;tabHeight=20;tabPosition=left;html=1;" vertex="1" parent="1">
          <mxGeometry x="520" y="300" width="150" height="120" as="geometry" />
        </mxCell>
        <mxCell id="WtGSnrzcYiVvbgUlNlTl-4" value="Router" style="text;align=center;fontStyle=1;verticalAlign=middle;spacingLeft=3;spacingRight=3;strokeColor=none;rotatable=0;points=[[0,0.5],[1,0.5]];portConstraint=eastwest;" vertex="1" parent="1">
          <mxGeometry x="520" y="300" width="50" height="20" as="geometry" />
        </mxCell>
        <mxCell id="WtGSnrzcYiVvbgUlNlTl-6" value="&lt;font style=&quot;font-size: 12px&quot;&gt;Use&lt;/font&gt;" style="endArrow=open;endSize=12;dashed=1;html=1;rounded=0;fontSize=25;" edge="1" parent="1" source="WtGSnrzcYiVvbgUlNlTl-1" target="WtGSnrzcYiVvbgUlNlTl-14">
          <mxGeometry width="160" relative="1" as="geometry">
            <mxPoint x="460" y="360" as="sourcePoint" />
            <mxPoint x="620" y="360" as="targetPoint" />
            <Array as="points">
              <mxPoint x="420" y="360" />
            </Array>
          </mxGeometry>
        </mxCell>
        <mxCell id="WtGSnrzcYiVvbgUlNlTl-10" value="" style="shape=folder;fontStyle=1;spacingTop=10;tabWidth=70;tabHeight=20;tabPosition=left;html=1;" vertex="1" parent="1">
          <mxGeometry x="520" y="480" width="150" height="120" as="geometry" />
        </mxCell>
        <mxCell id="WtGSnrzcYiVvbgUlNlTl-11" value="Controllers" style="text;align=center;fontStyle=1;verticalAlign=middle;spacingLeft=3;spacingRight=3;strokeColor=none;rotatable=0;points=[[0,0.5],[1,0.5]];portConstraint=eastwest;" vertex="1" parent="1">
          <mxGeometry x="530" y="480" width="50" height="20" as="geometry" />
        </mxCell>
        <mxCell id="WtGSnrzcYiVvbgUlNlTl-14" value="ServiceRouter" style="html=1;fontSize=12;" vertex="1" parent="1">
          <mxGeometry x="540" y="335" width="110" height="50" as="geometry" />
        </mxCell>
        <mxCell id="WtGSnrzcYiVvbgUlNlTl-15" value="ServiceController" style="html=1;fontSize=12;" vertex="1" parent="1">
          <mxGeometry x="540" y="530" width="110" height="50" as="geometry" />
        </mxCell>
        <mxCell id="WtGSnrzcYiVvbgUlNlTl-16" value="Import" style="endArrow=open;endSize=12;dashed=1;html=1;rounded=0;fontSize=12;" edge="1" parent="1" source="WtGSnrzcYiVvbgUlNlTl-14" target="WtGSnrzcYiVvbgUlNlTl-15">
          <mxGeometry width="160" relative="1" as="geometry">
            <mxPoint x="400" y="550" as="sourcePoint" />
            <mxPoint x="560" y="550" as="targetPoint" />
          </mxGeometry>
        </mxCell>
        <mxCell id="WtGSnrzcYiVvbgUlNlTl-17" value="" style="shape=folder;fontStyle=1;spacingTop=10;tabWidth=100;tabHeight=20;tabPosition=left;html=1;" vertex="1" parent="1">
          <mxGeometry x="520" y="80" width="150" height="120" as="geometry" />
        </mxCell>
        <mxCell id="WtGSnrzcYiVvbgUlNlTl-18" value="Dependencias" style="text;align=center;fontStyle=1;verticalAlign=middle;spacingLeft=3;spacingRight=3;strokeColor=none;rotatable=0;points=[[0,0.5],[1,0.5]];portConstraint=eastwest;" vertex="1" parent="1">
          <mxGeometry x="550" y="80" width="50" height="20" as="geometry" />
        </mxCell>
        <mxCell id="WtGSnrzcYiVvbgUlNlTl-19" value="Express" style="shape=module;align=center;spacingLeft=20;align=center;verticalAlign=top;fontFamily=Helvetica;fontSize=12;fontColor=rgba(0, 0, 0, 1);strokeColor=rgba(0, 0, 0, 1);fillColor=rgba(255, 255, 255, 1);html=1;" vertex="1" parent="1">
          <mxGeometry x="540" y="115" width="110" height="50" as="geometry" />
        </mxCell>
        <mxCell id="WtGSnrzcYiVvbgUlNlTl-20" value="Import" style="endArrow=open;endSize=12;dashed=1;html=1;rounded=0;fontSize=12;entryX=0;entryY=0.5;entryDx=0;entryDy=0;" edge="1" parent="1" source="WtGSnrzcYiVvbgUlNlTl-1" target="WtGSnrzcYiVvbgUlNlTl-19">
          <mxGeometry width="160" relative="1" as="geometry">
            <mxPoint x="730" y="220" as="sourcePoint" />
            <mxPoint x="730" y="365" as="targetPoint" />
            <Array as="points">
              <mxPoint x="420" y="140" />
            </Array>
          </mxGeometry>
        </mxCell>
        <mxCell id="WtGSnrzcYiVvbgUlNlTl-22" value="Import" style="endArrow=open;endSize=12;dashed=1;html=1;rounded=0;fontSize=12;exitX=0.5;exitY=0;exitDx=0;exitDy=0;entryX=0.5;entryY=1;entryDx=0;entryDy=0;" edge="1" parent="1" source="WtGSnrzcYiVvbgUlNlTl-14" target="WtGSnrzcYiVvbgUlNlTl-19">
          <mxGeometry width="160" relative="1" as="geometry">
            <mxPoint x="740" y="187.5" as="sourcePoint" />
            <mxPoint x="740" y="332.5" as="targetPoint" />
          </mxGeometry>
        </mxCell>
        <mxCell id="WtGSnrzcYiVvbgUlNlTl-24" value="&lt;font style=&quot;font-size: 25px&quot;&gt;index&lt;/font&gt;" style="rounded=0;whiteSpace=wrap;html=1;" vertex="1" parent="1">
          <mxGeometry x="340" y="-370" width="120" height="60" as="geometry" />
        </mxCell>
        <mxCell id="WtGSnrzcYiVvbgUlNlTl-25" value="" style="shape=folder;fontStyle=1;spacingTop=10;tabWidth=50;tabHeight=20;tabPosition=left;html=1;" vertex="1" parent="1">
          <mxGeometry x="500" y="-300" width="280" height="100" as="geometry" />
        </mxCell>
        <mxCell id="WtGSnrzcYiVvbgUlNlTl-26" value="Router" style="text;align=center;fontStyle=1;verticalAlign=middle;spacingLeft=3;spacingRight=3;strokeColor=none;rotatable=0;points=[[0,0.5],[1,0.5]];portConstraint=eastwest;" vertex="1" parent="1">
          <mxGeometry x="500" y="-300" width="50" height="20" as="geometry" />
        </mxCell>
        <mxCell id="WtGSnrzcYiVvbgUlNlTl-27" value="&lt;font style=&quot;font-size: 12px&quot;&gt;Use&lt;/font&gt;" style="endArrow=open;endSize=12;dashed=1;html=1;rounded=0;fontSize=25;" edge="1" parent="1" source="WtGSnrzcYiVvbgUlNlTl-24" target="WtGSnrzcYiVvbgUlNlTl-30">
          <mxGeometry width="160" relative="1" as="geometry">
            <mxPoint x="440" y="-240" as="sourcePoint" />
            <mxPoint x="600" y="-240" as="targetPoint" />
            <Array as="points">
              <mxPoint x="400" y="-240" />
            </Array>
          </mxGeometry>
        </mxCell>
        <mxCell id="WtGSnrzcYiVvbgUlNlTl-28" value="" style="shape=folder;fontStyle=1;spacingTop=10;tabWidth=70;tabHeight=20;tabPosition=left;html=1;" vertex="1" parent="1">
          <mxGeometry x="500" y="-120" width="280" height="110" as="geometry" />
        </mxCell>
        <mxCell id="WtGSnrzcYiVvbgUlNlTl-29" value="Controllers" style="text;align=center;fontStyle=1;verticalAlign=middle;spacingLeft=3;spacingRight=3;strokeColor=none;rotatable=0;points=[[0,0.5],[1,0.5]];portConstraint=eastwest;" vertex="1" parent="1">
          <mxGeometry x="510" y="-120" width="50" height="20" as="geometry" />
        </mxCell>
        <mxCell id="WtGSnrzcYiVvbgUlNlTl-30" value="ServiceRouter" style="html=1;fontSize=12;" vertex="1" parent="1">
          <mxGeometry x="520" y="-265" width="110" height="50" as="geometry" />
        </mxCell>
        <mxCell id="WtGSnrzcYiVvbgUlNlTl-31" value="ServiceController" style="html=1;fontSize=12;" vertex="1" parent="1">
          <mxGeometry x="520" y="-80" width="110" height="50" as="geometry" />
        </mxCell>
        <mxCell id="WtGSnrzcYiVvbgUlNlTl-32" value="Import" style="endArrow=open;endSize=12;dashed=1;html=1;rounded=0;fontSize=12;" edge="1" parent="1" source="WtGSnrzcYiVvbgUlNlTl-30" target="WtGSnrzcYiVvbgUlNlTl-31">
          <mxGeometry width="160" relative="1" as="geometry">
            <mxPoint x="380" y="-50" as="sourcePoint" />
            <mxPoint x="540" y="-50" as="targetPoint" />
          </mxGeometry>
        </mxCell>
        <mxCell id="WtGSnrzcYiVvbgUlNlTl-33" value="" style="shape=folder;fontStyle=1;spacingTop=10;tabWidth=100;tabHeight=20;tabPosition=left;html=1;" vertex="1" parent="1">
          <mxGeometry x="500" y="-520" width="150" height="120" as="geometry" />
        </mxCell>
        <mxCell id="WtGSnrzcYiVvbgUlNlTl-34" value="Dependencias" style="text;align=center;fontStyle=1;verticalAlign=middle;spacingLeft=3;spacingRight=3;strokeColor=none;rotatable=0;points=[[0,0.5],[1,0.5]];portConstraint=eastwest;" vertex="1" parent="1">
          <mxGeometry x="530" y="-520" width="50" height="20" as="geometry" />
        </mxCell>
        <mxCell id="WtGSnrzcYiVvbgUlNlTl-35" value="Express" style="shape=module;align=center;spacingLeft=20;align=center;verticalAlign=top;fontFamily=Helvetica;fontSize=12;fontColor=rgba(0, 0, 0, 1);strokeColor=rgba(0, 0, 0, 1);fillColor=rgba(255, 255, 255, 1);html=1;" vertex="1" parent="1">
          <mxGeometry x="520" y="-485" width="110" height="50" as="geometry" />
        </mxCell>
        <mxCell id="WtGSnrzcYiVvbgUlNlTl-36" value="Import" style="endArrow=open;endSize=12;dashed=1;html=1;rounded=0;fontSize=12;entryX=0;entryY=0.5;entryDx=0;entryDy=0;" edge="1" parent="1" source="WtGSnrzcYiVvbgUlNlTl-24" target="WtGSnrzcYiVvbgUlNlTl-35">
          <mxGeometry width="160" relative="1" as="geometry">
            <mxPoint x="710" y="-380" as="sourcePoint" />
            <mxPoint x="710" y="-235" as="targetPoint" />
            <Array as="points">
              <mxPoint x="400" y="-460" />
            </Array>
          </mxGeometry>
        </mxCell>
        <mxCell id="WtGSnrzcYiVvbgUlNlTl-37" value="Import" style="endArrow=open;endSize=12;dashed=1;html=1;rounded=0;fontSize=12;exitX=0.5;exitY=0;exitDx=0;exitDy=0;entryX=0.5;entryY=1;entryDx=0;entryDy=0;" edge="1" parent="1" source="WtGSnrzcYiVvbgUlNlTl-30" target="WtGSnrzcYiVvbgUlNlTl-35">
          <mxGeometry width="160" relative="1" as="geometry">
            <mxPoint x="720" y="-412.5" as="sourcePoint" />
            <mxPoint x="720" y="-267.5" as="targetPoint" />
          </mxGeometry>
        </mxCell>
        <mxCell id="WtGSnrzcYiVvbgUlNlTl-38" value="ServiceRouter" style="html=1;fontSize=12;" vertex="1" parent="1">
          <mxGeometry x="650" y="-265" width="110" height="50" as="geometry" />
        </mxCell>
        <mxCell id="WtGSnrzcYiVvbgUlNlTl-39" value="ServiceController" style="html=1;fontSize=12;" vertex="1" parent="1">
          <mxGeometry x="650" y="-80" width="110" height="50" as="geometry" />
        </mxCell>
      </root>
    </mxGraphModel>
  </diagram>
</mxfile>
